REM DIRINDEX 1\2\3,1\2\4,1\2\5,1\2\6
REM DIRNAME cjc157,folder01,folder02,folder03,folder04,folder05
TITLE ""
FILE "131 131.mp3" MP3
  TRACK 01 AUDIO
    TITLE "0:"
    INDEX 01 00:00:00
  TRACK 02 AUDIO
    TITLE "3:cjc157_4903"
    INDEX 01 00:00:07
  TRACK 03 AUDIO
    TITLE "0:"
    INDEX 01 00:01:32
  TRACK 04 AUDIO
    TITLE "4:cjc157_4904"
    INDEX 01 00:02:02
  TRACK 05 AUDIO
    TITLE "0:"
    INDEX 01 00:03:08
  TRACK 06 AUDIO
    TITLE "5:cjc157_4905"
    INDEX 01 00:03:53
  TRACK 07 AUDIO
    TITLE "0:"
    INDEX 01 00:06:14
  TRACK 08 AUDIO
    TITLE "5:cjc157_4906"
    INDEX 01 00:06:59
  TRACK 09 AUDIO
    TITLE "0:"
    INDEX 01 00:10:08
  TRACK 10 AUDIO
    TITLE "3:cjc157_4907"
    INDEX 01 00:10:57
  TRACK 11 AUDIO
    TITLE "0:"
    INDEX 01 00:12:20
  TRACK 12 AUDIO
    TITLE "4:cjc157_4908"
    INDEX 01 00:12:63
  TRACK 13 AUDIO
    TITLE "0:"
    INDEX 01 00:13:71
  TRACK 14 AUDIO
    TITLE "5:cjc157_4909"
    INDEX 01 00:14:45
  TRACK 15 AUDIO
    TITLE "0:"
    INDEX 01 00:16:40
  TRACK 16 AUDIO
    TITLE "5:cjc157_4910"
    INDEX 01 00:17:20
  TRACK 17 AUDIO
    TITLE "0:"
    INDEX 01 00:18:72
  TRACK 18 AUDIO
    TITLE "3:cjc157_4911"
    INDEX 01 00:19:44
  TRACK 19 AUDIO
    TITLE "0:"
    INDEX 01 00:20:71
  TRACK 20 AUDIO
    TITLE "4:cjc157_4912"
    INDEX 01 00:21:41
  TRACK 21 AUDIO
    TITLE "0:"
    INDEX 01 00:22:56
  TRACK 22 AUDIO
    TITLE "5:cjc157_4913"
    INDEX 01 00:23:26
  TRACK 23 AUDIO
    TITLE "0:"
    INDEX 01 00:25:23
  TRACK 24 AUDIO
    TITLE "3:cjc157_4914"
    INDEX 01 00:25:68
  TRACK 25 AUDIO
    TITLE "0:"
    INDEX 01 00:27:30
  TRACK 26 AUDIO
    TITLE "4:cjc157_4915"
    INDEX 01 00:27:71
  TRACK 27 AUDIO
    TITLE "0:"
    INDEX 01 00:29:25
  TRACK 28 AUDIO
    TITLE "5:cjc157_4916"
    INDEX 01 00:29:72
  TRACK 29 AUDIO
    TITLE "0:"
    INDEX 01 00:32:19
  TRACK 30 AUDIO
    TITLE "5:cjc157_4917"
    INDEX 01 00:32:68
  TRACK 31 AUDIO
    TITLE "0:"
    INDEX 01 00:35:04
  TRACK 32 AUDIO
    TITLE "3:cjc157_4918"
    INDEX 01 00:35:47
  TRACK 33 AUDIO
    TITLE "0:"
    INDEX 01 00:36:48
  TRACK 34 AUDIO
    TITLE "4:cjc157_4919"
    INDEX 01 00:37:14
  TRACK 35 AUDIO
    TITLE "0:"
    INDEX 01 00:38:35
  TRACK 36 AUDIO
    TITLE "5:cjc157_4920"
    INDEX 01 00:39:05
  TRACK 37 AUDIO
    TITLE "0:"
    INDEX 01 00:40:73
  TRACK 38 AUDIO
    TITLE "5:cjc157_4921"
    INDEX 01 00:41:45
  TRACK 39 AUDIO
    TITLE "0:"
    INDEX 01 00:43:66
  TRACK 40 AUDIO
    TITLE "3:cjc157_4922"
    INDEX 01 00:44:36
  TRACK 41 AUDIO
    TITLE "0:"
    INDEX 01 00:45:47
  TRACK 42 AUDIO
    TITLE "4:cjc157_4923"
    INDEX 01 00:46:15
  TRACK 43 AUDIO
    TITLE "0:"
    INDEX 01 00:47:27
  TRACK 44 AUDIO
    TITLE "5:cjc157_4924"
    INDEX 01 00:48:00
  TRACK 45 AUDIO
    TITLE "0:"
    INDEX 01 00:50:19
  TRACK 46 AUDIO
    TITLE "5:cjc157_4925"
    INDEX 01 00:50:62
  TRACK 47 AUDIO
    TITLE "0:"
    INDEX 01 00:52:59
  TRACK 48 AUDIO
    TITLE "3:cjc157_4926"
    INDEX 01 00:53:31
  TRACK 49 AUDIO
    TITLE "0:"
    INDEX 01 00:54:40
  TRACK 50 AUDIO
    TITLE "4:cjc157_4927"
    INDEX 01 00:55:10
  TRACK 51 AUDIO
    TITLE "0:"
    INDEX 01 00:56:31
  TRACK 52 AUDIO
    TITLE "5:cjc157_4928"
    INDEX 01 00:56:74
  TRACK 53 AUDIO
    TITLE "0:"
    INDEX 01 01:00:13
  TRACK 54 AUDIO
    TITLE "3:cjc157_4929"
    INDEX 01 01:00:59
  TRACK 55 AUDIO
    TITLE "0:"
    INDEX 01 01:02:06
  TRACK 56 AUDIO
    TITLE "4:cjc157_4930"
    INDEX 01 01:02:55
  TRACK 57 AUDIO
    TITLE "0:"
    INDEX 01 01:03:69
  TRACK 58 AUDIO
    TITLE "5:cjc157_4931"
    INDEX 01 01:04:39
  TRACK 59 AUDIO
    TITLE "0:"
    INDEX 01 01:06:69
  TRACK 60 AUDIO
    TITLE "3:cjc157_4932"
    INDEX 01 01:07:43
  TRACK 61 AUDIO
    TITLE "0:"
    INDEX 01 01:09:01
  TRACK 62 AUDIO
    TITLE "4:cjc157_4933"
    INDEX 01 01:09:48
  TRACK 63 AUDIO
    TITLE "0:"
    INDEX 01 01:10:67
  TRACK 64 AUDIO
    TITLE "5:cjc157_4934"
    INDEX 01 01:11:39
  TRACK 65 AUDIO
    TITLE "0:"
    INDEX 01 01:13:36
  TRACK 66 AUDIO
    TITLE "5:cjc157_4935"
    INDEX 01 01:14:08
  TRACK 67 AUDIO
    TITLE "0:"
    INDEX 01 01:16:20
  TRACK 68 AUDIO
    TITLE "3:cjc157_4936"
    INDEX 01 01:16:71
  TRACK 69 AUDIO
    TITLE "0:"
    INDEX 01 01:18:54
  TRACK 70 AUDIO
    TITLE "4:cjc157_4937"
    INDEX 01 01:19:27
  TRACK 71 AUDIO
    TITLE "0:"
    INDEX 01 01:20:34
  TRACK 72 AUDIO
    TITLE "5:cjc157_4938"
    INDEX 01 01:21:04
  TRACK 73 AUDIO
    TITLE "0:"
    INDEX 01 01:22:70
  TRACK 74 AUDIO
    TITLE "5:cjc157_4939"
    INDEX 01 01:23:44
  TRACK 75 AUDIO
    TITLE "0:"
    INDEX 01 01:27:22
